<mxfile host="app.diagrams.net" modified="2024-04-15T08:55:44.893Z" agent="Mozilla/5.0 (Windows NT 10.0; Win64; x64) AppleWebKit/537.36 (KHTML, like Gecko) Chrome/123.0.0.0 Safari/537.36" etag="i6BoTseKvoy5gCUPhBWZ" version="24.2.5" type="github">
  <diagram id="R2lEEEUBdFMjLlhIrx00" name="Page-1">
    <mxGraphModel dx="1050" dy="557" grid="1" gridSize="10" guides="1" tooltips="1" connect="1" arrows="1" fold="1" page="1" pageScale="1" pageWidth="850" pageHeight="1100" math="0" shadow="0" extFonts="Permanent Marker^https://fonts.googleapis.com/css?family=Permanent+Marker">
      <root>
        <mxCell id="0" />
        <mxCell id="1" parent="0" />
        <mxCell id="elbC12o0p4oLqYYJZBOE-14" style="edgeStyle=orthogonalEdgeStyle;rounded=0;orthogonalLoop=1;jettySize=auto;html=1;exitX=0.5;exitY=1;exitDx=0;exitDy=0;entryX=0.5;entryY=0;entryDx=0;entryDy=0;endArrow=none;endFill=0;" edge="1" parent="1" source="elbC12o0p4oLqYYJZBOE-7" target="elbC12o0p4oLqYYJZBOE-13">
          <mxGeometry relative="1" as="geometry" />
        </mxCell>
        <mxCell id="elbC12o0p4oLqYYJZBOE-7" value="Paciente" style="rounded=0;whiteSpace=wrap;html=1;" vertex="1" parent="1">
          <mxGeometry x="210" y="370" width="120" height="60" as="geometry" />
        </mxCell>
        <mxCell id="elbC12o0p4oLqYYJZBOE-8" value="MÃ©dico" style="rounded=0;whiteSpace=wrap;html=1;" vertex="1" parent="1">
          <mxGeometry x="525" y="370" width="120" height="60" as="geometry" />
        </mxCell>
        <mxCell id="elbC12o0p4oLqYYJZBOE-19" style="edgeStyle=orthogonalEdgeStyle;rounded=0;orthogonalLoop=1;jettySize=auto;html=1;exitX=1;exitY=0.5;exitDx=0;exitDy=0;entryX=0;entryY=0.5;entryDx=0;entryDy=0;endArrow=none;endFill=0;" edge="1" parent="1" source="elbC12o0p4oLqYYJZBOE-9" target="elbC12o0p4oLqYYJZBOE-12">
          <mxGeometry relative="1" as="geometry" />
        </mxCell>
        <mxCell id="elbC12o0p4oLqYYJZBOE-9" value="Consulta" style="rounded=0;whiteSpace=wrap;html=1;" vertex="1" parent="1">
          <mxGeometry x="210" y="670" width="120" height="60" as="geometry" />
        </mxCell>
        <mxCell id="elbC12o0p4oLqYYJZBOE-10" value="Exame" style="rounded=0;whiteSpace=wrap;html=1;" vertex="1" parent="1">
          <mxGeometry x="525" y="670" width="120" height="60" as="geometry" />
        </mxCell>
        <mxCell id="elbC12o0p4oLqYYJZBOE-11" value="" style="rhombus;whiteSpace=wrap;html=1;rotation=45;" vertex="1" parent="1">
          <mxGeometry x="385" y="510" width="80" height="80" as="geometry" />
        </mxCell>
        <mxCell id="elbC12o0p4oLqYYJZBOE-20" style="edgeStyle=orthogonalEdgeStyle;rounded=0;orthogonalLoop=1;jettySize=auto;html=1;exitX=1;exitY=0.5;exitDx=0;exitDy=0;entryX=0;entryY=0.5;entryDx=0;entryDy=0;endArrow=none;endFill=0;" edge="1" parent="1" source="elbC12o0p4oLqYYJZBOE-12" target="elbC12o0p4oLqYYJZBOE-10">
          <mxGeometry relative="1" as="geometry" />
        </mxCell>
        <mxCell id="elbC12o0p4oLqYYJZBOE-12" value="" style="rhombus;whiteSpace=wrap;html=1;" vertex="1" parent="1">
          <mxGeometry x="385" y="660" width="80" height="80" as="geometry" />
        </mxCell>
        <mxCell id="elbC12o0p4oLqYYJZBOE-15" style="edgeStyle=orthogonalEdgeStyle;rounded=0;orthogonalLoop=1;jettySize=auto;html=1;exitX=0.5;exitY=1;exitDx=0;exitDy=0;entryX=0.5;entryY=0;entryDx=0;entryDy=0;endArrow=none;endFill=0;" edge="1" parent="1" source="elbC12o0p4oLqYYJZBOE-13" target="elbC12o0p4oLqYYJZBOE-9">
          <mxGeometry relative="1" as="geometry" />
        </mxCell>
        <mxCell id="elbC12o0p4oLqYYJZBOE-13" value="" style="rhombus;whiteSpace=wrap;html=1;" vertex="1" parent="1">
          <mxGeometry x="230" y="510" width="80" height="80" as="geometry" />
        </mxCell>
        <mxCell id="elbC12o0p4oLqYYJZBOE-17" value="" style="endArrow=none;html=1;rounded=0;entryX=0.5;entryY=1;entryDx=0;entryDy=0;" edge="1" parent="1" target="elbC12o0p4oLqYYJZBOE-11">
          <mxGeometry width="50" height="50" relative="1" as="geometry">
            <mxPoint x="330" y="670" as="sourcePoint" />
            <mxPoint x="380" y="620" as="targetPoint" />
          </mxGeometry>
        </mxCell>
        <mxCell id="elbC12o0p4oLqYYJZBOE-18" value="" style="endArrow=none;html=1;rounded=0;exitX=0.5;exitY=0;exitDx=0;exitDy=0;" edge="1" parent="1" source="elbC12o0p4oLqYYJZBOE-11">
          <mxGeometry width="50" height="50" relative="1" as="geometry">
            <mxPoint x="445" y="530" as="sourcePoint" />
            <mxPoint x="525" y="430" as="targetPoint" />
          </mxGeometry>
        </mxCell>
        <mxCell id="elbC12o0p4oLqYYJZBOE-21" value="N" style="text;html=1;align=center;verticalAlign=middle;whiteSpace=wrap;rounded=0;" vertex="1" parent="1">
          <mxGeometry x="270" y="650" width="20" height="20" as="geometry" />
        </mxCell>
        <mxCell id="elbC12o0p4oLqYYJZBOE-22" value="1" style="text;html=1;align=center;verticalAlign=middle;whiteSpace=wrap;rounded=0;" vertex="1" parent="1">
          <mxGeometry x="330" y="680" width="20" height="20" as="geometry" />
        </mxCell>
        <mxCell id="elbC12o0p4oLqYYJZBOE-23" value="N" style="text;html=1;align=center;verticalAlign=middle;whiteSpace=wrap;rounded=0;rotation=-50;" vertex="1" parent="1">
          <mxGeometry x="320" y="650" width="20" height="20" as="geometry" />
        </mxCell>
        <mxCell id="elbC12o0p4oLqYYJZBOE-24" value="1" style="text;html=1;align=center;verticalAlign=middle;whiteSpace=wrap;rounded=0;" vertex="1" parent="1">
          <mxGeometry x="270" y="430" width="20" height="20" as="geometry" />
        </mxCell>
        <mxCell id="elbC12o0p4oLqYYJZBOE-26" value="1" style="text;html=1;align=center;verticalAlign=middle;whiteSpace=wrap;rounded=0;rotation=-50;" vertex="1" parent="1">
          <mxGeometry x="505" y="420" width="20" height="20" as="geometry" />
        </mxCell>
        <mxCell id="elbC12o0p4oLqYYJZBOE-32" value="N" style="text;html=1;align=center;verticalAlign=middle;whiteSpace=wrap;rounded=0;" vertex="1" parent="1">
          <mxGeometry x="505" y="680" width="20" height="20" as="geometry" />
        </mxCell>
        <mxCell id="elbC12o0p4oLqYYJZBOE-75" style="edgeStyle=orthogonalEdgeStyle;rounded=0;orthogonalLoop=1;jettySize=auto;html=1;exitX=0.5;exitY=1;exitDx=0;exitDy=0;entryX=0.25;entryY=0;entryDx=0;entryDy=0;endArrow=none;endFill=0;" edge="1" parent="1" source="elbC12o0p4oLqYYJZBOE-33" target="elbC12o0p4oLqYYJZBOE-8">
          <mxGeometry relative="1" as="geometry" />
        </mxCell>
        <mxCell id="elbC12o0p4oLqYYJZBOE-33" value="" style="ellipse;whiteSpace=wrap;html=1;aspect=fixed;fillColor=#000000;" vertex="1" parent="1">
          <mxGeometry x="540" y="320" width="30" height="30" as="geometry" />
        </mxCell>
        <mxCell id="elbC12o0p4oLqYYJZBOE-76" style="edgeStyle=orthogonalEdgeStyle;rounded=0;orthogonalLoop=1;jettySize=auto;html=1;exitX=0.5;exitY=1;exitDx=0;exitDy=0;entryX=0.75;entryY=0;entryDx=0;entryDy=0;endArrow=none;endFill=0;" edge="1" parent="1" source="elbC12o0p4oLqYYJZBOE-34" target="elbC12o0p4oLqYYJZBOE-8">
          <mxGeometry relative="1" as="geometry" />
        </mxCell>
        <mxCell id="elbC12o0p4oLqYYJZBOE-34" value="" style="ellipse;whiteSpace=wrap;html=1;aspect=fixed;" vertex="1" parent="1">
          <mxGeometry x="600" y="320" width="30" height="30" as="geometry" />
        </mxCell>
        <mxCell id="elbC12o0p4oLqYYJZBOE-79" style="edgeStyle=orthogonalEdgeStyle;rounded=0;orthogonalLoop=1;jettySize=auto;html=1;exitX=0.5;exitY=1;exitDx=0;exitDy=0;entryX=0.5;entryY=0;entryDx=0;entryDy=0;endArrow=none;endFill=0;" edge="1" parent="1" source="elbC12o0p4oLqYYJZBOE-35" target="elbC12o0p4oLqYYJZBOE-7">
          <mxGeometry relative="1" as="geometry" />
        </mxCell>
        <mxCell id="elbC12o0p4oLqYYJZBOE-35" value="" style="ellipse;whiteSpace=wrap;html=1;aspect=fixed;fillColor=#000000;" vertex="1" parent="1">
          <mxGeometry x="255" y="320" width="30" height="30" as="geometry" />
        </mxCell>
        <mxCell id="elbC12o0p4oLqYYJZBOE-36" value="" style="ellipse;whiteSpace=wrap;html=1;aspect=fixed;fillColor=#000000;" vertex="1" parent="1">
          <mxGeometry x="225" y="750" width="30" height="30" as="geometry" />
        </mxCell>
        <mxCell id="elbC12o0p4oLqYYJZBOE-72" style="edgeStyle=orthogonalEdgeStyle;rounded=0;orthogonalLoop=1;jettySize=auto;html=1;exitX=0.5;exitY=0;exitDx=0;exitDy=0;entryX=0.75;entryY=1;entryDx=0;entryDy=0;endArrow=none;endFill=0;" edge="1" parent="1" source="elbC12o0p4oLqYYJZBOE-37" target="elbC12o0p4oLqYYJZBOE-9">
          <mxGeometry relative="1" as="geometry" />
        </mxCell>
        <mxCell id="elbC12o0p4oLqYYJZBOE-37" value="" style="ellipse;whiteSpace=wrap;html=1;aspect=fixed;" vertex="1" parent="1">
          <mxGeometry x="285" y="750" width="30" height="30" as="geometry" />
        </mxCell>
        <mxCell id="elbC12o0p4oLqYYJZBOE-70" style="edgeStyle=orthogonalEdgeStyle;rounded=0;orthogonalLoop=1;jettySize=auto;html=1;exitX=1;exitY=0.5;exitDx=0;exitDy=0;endArrow=none;endFill=0;" edge="1" parent="1" source="elbC12o0p4oLqYYJZBOE-38" target="elbC12o0p4oLqYYJZBOE-9">
          <mxGeometry relative="1" as="geometry" />
        </mxCell>
        <mxCell id="elbC12o0p4oLqYYJZBOE-38" value="" style="ellipse;whiteSpace=wrap;html=1;aspect=fixed;" vertex="1" parent="1">
          <mxGeometry x="160" y="685" width="30" height="30" as="geometry" />
        </mxCell>
        <mxCell id="elbC12o0p4oLqYYJZBOE-77" style="edgeStyle=orthogonalEdgeStyle;rounded=0;orthogonalLoop=1;jettySize=auto;html=1;exitX=0.5;exitY=0;exitDx=0;exitDy=0;entryX=0.25;entryY=1;entryDx=0;entryDy=0;endArrow=none;endFill=0;" edge="1" parent="1" source="elbC12o0p4oLqYYJZBOE-39" target="elbC12o0p4oLqYYJZBOE-10">
          <mxGeometry relative="1" as="geometry" />
        </mxCell>
        <mxCell id="elbC12o0p4oLqYYJZBOE-39" value="" style="ellipse;whiteSpace=wrap;html=1;aspect=fixed;" vertex="1" parent="1">
          <mxGeometry x="540" y="750" width="30" height="30" as="geometry" />
        </mxCell>
        <mxCell id="elbC12o0p4oLqYYJZBOE-74" style="edgeStyle=orthogonalEdgeStyle;rounded=0;orthogonalLoop=1;jettySize=auto;html=1;exitX=0.5;exitY=1;exitDx=0;exitDy=0;entryX=0.75;entryY=0;entryDx=0;entryDy=0;endArrow=none;endFill=0;" edge="1" parent="1" source="elbC12o0p4oLqYYJZBOE-40" target="elbC12o0p4oLqYYJZBOE-10">
          <mxGeometry relative="1" as="geometry" />
        </mxCell>
        <mxCell id="elbC12o0p4oLqYYJZBOE-40" value="" style="ellipse;whiteSpace=wrap;html=1;aspect=fixed;" vertex="1" parent="1">
          <mxGeometry x="600" y="620" width="30" height="30" as="geometry" />
        </mxCell>
        <mxCell id="elbC12o0p4oLqYYJZBOE-73" style="edgeStyle=orthogonalEdgeStyle;rounded=0;orthogonalLoop=1;jettySize=auto;html=1;exitX=0.5;exitY=1;exitDx=0;exitDy=0;entryX=0.25;entryY=0;entryDx=0;entryDy=0;endArrow=none;endFill=0;" edge="1" parent="1" source="elbC12o0p4oLqYYJZBOE-41" target="elbC12o0p4oLqYYJZBOE-10">
          <mxGeometry relative="1" as="geometry" />
        </mxCell>
        <mxCell id="elbC12o0p4oLqYYJZBOE-41" value="" style="ellipse;whiteSpace=wrap;html=1;aspect=fixed;fillColor=#000000;" vertex="1" parent="1">
          <mxGeometry x="540" y="620" width="30" height="30" as="geometry" />
        </mxCell>
        <mxCell id="elbC12o0p4oLqYYJZBOE-43" value="nÃºmero" style="text;html=1;align=center;verticalAlign=middle;whiteSpace=wrap;rounded=0;" vertex="1" parent="1">
          <mxGeometry x="240" y="290" width="60" height="30" as="geometry" />
        </mxCell>
        <mxCell id="elbC12o0p4oLqYYJZBOE-44" value="crm" style="text;html=1;align=center;verticalAlign=middle;whiteSpace=wrap;rounded=0;" vertex="1" parent="1">
          <mxGeometry x="525" y="290" width="60" height="30" as="geometry" />
        </mxCell>
        <mxCell id="elbC12o0p4oLqYYJZBOE-45" value="nÃºmero" style="text;html=1;align=center;verticalAlign=middle;whiteSpace=wrap;rounded=0;" vertex="1" parent="1">
          <mxGeometry x="215" y="780" width="60" height="30" as="geometry" />
        </mxCell>
        <mxCell id="elbC12o0p4oLqYYJZBOE-46" value="nome" style="text;html=1;align=center;verticalAlign=middle;whiteSpace=wrap;rounded=0;" vertex="1" parent="1">
          <mxGeometry x="585" y="290" width="60" height="30" as="geometry" />
        </mxCell>
        <mxCell id="elbC12o0p4oLqYYJZBOE-47" value="nÃºmero" style="text;html=1;align=center;verticalAlign=middle;whiteSpace=wrap;rounded=0;" vertex="1" parent="1">
          <mxGeometry x="525" y="590" width="60" height="30" as="geometry" />
        </mxCell>
        <mxCell id="elbC12o0p4oLqYYJZBOE-48" value="data" style="text;html=1;align=center;verticalAlign=middle;whiteSpace=wrap;rounded=0;" vertex="1" parent="1">
          <mxGeometry x="525" y="780" width="60" height="30" as="geometry" />
        </mxCell>
        <mxCell id="elbC12o0p4oLqYYJZBOE-49" value="data" style="text;html=1;align=center;verticalAlign=middle;whiteSpace=wrap;rounded=0;" vertex="1" parent="1">
          <mxGeometry x="110" y="685" width="60" height="30" as="geometry" />
        </mxCell>
        <mxCell id="elbC12o0p4oLqYYJZBOE-50" value="descriÃ§Ã£o" style="text;html=1;align=center;verticalAlign=middle;whiteSpace=wrap;rounded=0;" vertex="1" parent="1">
          <mxGeometry x="585" y="590" width="60" height="30" as="geometry" />
        </mxCell>
        <mxCell id="elbC12o0p4oLqYYJZBOE-52" value="diagnÃ³stico" style="text;html=1;align=center;verticalAlign=middle;whiteSpace=wrap;rounded=0;" vertex="1" parent="1">
          <mxGeometry x="280" y="780" width="60" height="30" as="geometry" />
        </mxCell>
        <mxCell id="elbC12o0p4oLqYYJZBOE-53" value="nome" style="text;html=1;align=center;verticalAlign=middle;whiteSpace=wrap;rounded=0;" vertex="1" parent="1">
          <mxGeometry x="110" y="340" width="60" height="30" as="geometry" />
        </mxCell>
        <mxCell id="elbC12o0p4oLqYYJZBOE-54" value="sexo" style="text;html=1;align=center;verticalAlign=middle;whiteSpace=wrap;rounded=0;" vertex="1" parent="1">
          <mxGeometry x="110" y="380" width="60" height="30" as="geometry" />
        </mxCell>
        <mxCell id="elbC12o0p4oLqYYJZBOE-55" value="tel" style="text;html=1;align=center;verticalAlign=middle;whiteSpace=wrap;rounded=0;" vertex="1" parent="1">
          <mxGeometry x="195" y="290" width="60" height="30" as="geometry" />
        </mxCell>
        <mxCell id="elbC12o0p4oLqYYJZBOE-56" value="end" style="text;html=1;align=center;verticalAlign=middle;whiteSpace=wrap;rounded=0;" vertex="1" parent="1">
          <mxGeometry x="200" y="475" width="60" height="30" as="geometry" />
        </mxCell>
        <mxCell id="elbC12o0p4oLqYYJZBOE-57" value="dt.nas" style="text;html=1;align=center;verticalAlign=middle;whiteSpace=wrap;rounded=0;" vertex="1" parent="1">
          <mxGeometry x="290" y="290" width="60" height="30" as="geometry" />
        </mxCell>
        <mxCell id="elbC12o0p4oLqYYJZBOE-58" value="conv" style="text;html=1;align=center;verticalAlign=middle;whiteSpace=wrap;rounded=0;" vertex="1" parent="1">
          <mxGeometry x="110" y="415" width="60" height="30" as="geometry" />
        </mxCell>
        <mxCell id="elbC12o0p4oLqYYJZBOE-62" value="" style="ellipse;whiteSpace=wrap;html=1;aspect=fixed;" vertex="1" parent="1">
          <mxGeometry x="210" y="320" width="30" height="30" as="geometry" />
        </mxCell>
        <mxCell id="elbC12o0p4oLqYYJZBOE-63" value="" style="ellipse;whiteSpace=wrap;html=1;aspect=fixed;" vertex="1" parent="1">
          <mxGeometry x="300" y="320" width="30" height="30" as="geometry" />
        </mxCell>
        <mxCell id="elbC12o0p4oLqYYJZBOE-83" style="edgeStyle=orthogonalEdgeStyle;rounded=0;orthogonalLoop=1;jettySize=auto;html=1;exitX=1;exitY=0.5;exitDx=0;exitDy=0;entryX=0;entryY=0.5;entryDx=0;entryDy=0;endArrow=none;endFill=0;" edge="1" parent="1" source="elbC12o0p4oLqYYJZBOE-64" target="elbC12o0p4oLqYYJZBOE-7">
          <mxGeometry relative="1" as="geometry" />
        </mxCell>
        <mxCell id="elbC12o0p4oLqYYJZBOE-64" value="" style="ellipse;whiteSpace=wrap;html=1;aspect=fixed;" vertex="1" parent="1">
          <mxGeometry x="160" y="385" width="30" height="30" as="geometry" />
        </mxCell>
        <mxCell id="elbC12o0p4oLqYYJZBOE-82" style="edgeStyle=orthogonalEdgeStyle;rounded=0;orthogonalLoop=1;jettySize=auto;html=1;exitX=1;exitY=0.5;exitDx=0;exitDy=0;entryX=0;entryY=1;entryDx=0;entryDy=0;endArrow=none;endFill=0;" edge="1" parent="1" source="elbC12o0p4oLqYYJZBOE-65" target="elbC12o0p4oLqYYJZBOE-7">
          <mxGeometry relative="1" as="geometry" />
        </mxCell>
        <mxCell id="elbC12o0p4oLqYYJZBOE-65" value="" style="ellipse;whiteSpace=wrap;html=1;aspect=fixed;" vertex="1" parent="1">
          <mxGeometry x="160" y="430" width="30" height="30" as="geometry" />
        </mxCell>
        <mxCell id="elbC12o0p4oLqYYJZBOE-87" style="edgeStyle=orthogonalEdgeStyle;rounded=0;orthogonalLoop=1;jettySize=auto;html=1;exitX=1;exitY=0.5;exitDx=0;exitDy=0;entryX=0;entryY=0;entryDx=0;entryDy=0;endArrow=none;endFill=0;" edge="1" parent="1" source="elbC12o0p4oLqYYJZBOE-66" target="elbC12o0p4oLqYYJZBOE-7">
          <mxGeometry relative="1" as="geometry" />
        </mxCell>
        <mxCell id="elbC12o0p4oLqYYJZBOE-66" value="" style="ellipse;whiteSpace=wrap;html=1;aspect=fixed;" vertex="1" parent="1">
          <mxGeometry x="160" y="340" width="30" height="30" as="geometry" />
        </mxCell>
        <mxCell id="elbC12o0p4oLqYYJZBOE-69" value="" style="ellipse;whiteSpace=wrap;html=1;aspect=fixed;" vertex="1" parent="1">
          <mxGeometry x="215" y="445" width="30" height="30" as="geometry" />
        </mxCell>
        <mxCell id="elbC12o0p4oLqYYJZBOE-71" style="edgeStyle=orthogonalEdgeStyle;rounded=0;orthogonalLoop=1;jettySize=auto;html=1;exitX=0.5;exitY=0;exitDx=0;exitDy=0;entryX=0.32;entryY=0.997;entryDx=0;entryDy=0;entryPerimeter=0;endArrow=none;endFill=0;" edge="1" parent="1" source="elbC12o0p4oLqYYJZBOE-36" target="elbC12o0p4oLqYYJZBOE-9">
          <mxGeometry relative="1" as="geometry">
            <Array as="points">
              <mxPoint x="240" y="730" />
            </Array>
          </mxGeometry>
        </mxCell>
        <mxCell id="elbC12o0p4oLqYYJZBOE-78" style="edgeStyle=orthogonalEdgeStyle;rounded=0;orthogonalLoop=1;jettySize=auto;html=1;exitX=0.5;exitY=1;exitDx=0;exitDy=0;entryX=0.887;entryY=-0.017;entryDx=0;entryDy=0;entryPerimeter=0;endArrow=none;endFill=0;" edge="1" parent="1" source="elbC12o0p4oLqYYJZBOE-63" target="elbC12o0p4oLqYYJZBOE-7">
          <mxGeometry relative="1" as="geometry" />
        </mxCell>
        <mxCell id="elbC12o0p4oLqYYJZBOE-80" style="edgeStyle=orthogonalEdgeStyle;rounded=0;orthogonalLoop=1;jettySize=auto;html=1;exitX=0.5;exitY=1;exitDx=0;exitDy=0;entryX=0.133;entryY=0.023;entryDx=0;entryDy=0;entryPerimeter=0;endArrow=none;endFill=0;" edge="1" parent="1" source="elbC12o0p4oLqYYJZBOE-62" target="elbC12o0p4oLqYYJZBOE-7">
          <mxGeometry relative="1" as="geometry" />
        </mxCell>
        <mxCell id="elbC12o0p4oLqYYJZBOE-84" style="edgeStyle=orthogonalEdgeStyle;rounded=0;orthogonalLoop=1;jettySize=auto;html=1;exitX=0.5;exitY=0;exitDx=0;exitDy=0;entryX=0.167;entryY=1;entryDx=0;entryDy=0;entryPerimeter=0;endArrow=none;endFill=0;" edge="1" parent="1" source="elbC12o0p4oLqYYJZBOE-69" target="elbC12o0p4oLqYYJZBOE-7">
          <mxGeometry relative="1" as="geometry" />
        </mxCell>
        <mxCell id="elbC12o0p4oLqYYJZBOE-95" style="edgeStyle=orthogonalEdgeStyle;rounded=0;orthogonalLoop=1;jettySize=auto;html=1;exitX=0;exitY=0.5;exitDx=0;exitDy=0;entryX=1;entryY=1;entryDx=0;entryDy=0;endArrow=none;endFill=0;" edge="1" parent="1" source="elbC12o0p4oLqYYJZBOE-89" target="elbC12o0p4oLqYYJZBOE-7">
          <mxGeometry relative="1" as="geometry" />
        </mxCell>
        <mxCell id="elbC12o0p4oLqYYJZBOE-89" value="" style="ellipse;whiteSpace=wrap;html=1;aspect=fixed;" vertex="1" parent="1">
          <mxGeometry x="350" y="410" width="30" height="30" as="geometry" />
        </mxCell>
        <mxCell id="elbC12o0p4oLqYYJZBOE-96" style="edgeStyle=orthogonalEdgeStyle;rounded=0;orthogonalLoop=1;jettySize=auto;html=1;exitX=0;exitY=0.5;exitDx=0;exitDy=0;entryX=1;entryY=0.25;entryDx=0;entryDy=0;endArrow=none;endFill=0;" edge="1" parent="1" source="elbC12o0p4oLqYYJZBOE-90" target="elbC12o0p4oLqYYJZBOE-7">
          <mxGeometry relative="1" as="geometry" />
        </mxCell>
        <mxCell id="elbC12o0p4oLqYYJZBOE-90" value="" style="ellipse;whiteSpace=wrap;html=1;aspect=fixed;" vertex="1" parent="1">
          <mxGeometry x="350" y="370" width="30" height="30" as="geometry" />
        </mxCell>
        <mxCell id="elbC12o0p4oLqYYJZBOE-92" value="est.civil" style="text;html=1;align=center;verticalAlign=middle;whiteSpace=wrap;rounded=0;" vertex="1" parent="1">
          <mxGeometry x="380" y="370" width="60" height="30" as="geometry" />
        </mxCell>
        <mxCell id="elbC12o0p4oLqYYJZBOE-93" value="rg" style="text;html=1;align=center;verticalAlign=middle;whiteSpace=wrap;rounded=0;" vertex="1" parent="1">
          <mxGeometry x="380" y="415" width="25" height="20" as="geometry" />
        </mxCell>
      </root>
    </mxGraphModel>
  </diagram>
</mxfile>
